<svg width="533.57269" height="511.32532" xmlns="http://www.w3.org/2000/svg">

 <metadata id="metadata7">image/svg+xml</metadata>
 <g>
  <title>background</title>
  <rect fill="none" id="canvas_background" height="513.32532" width="535.57269" y="-1" x="-1"/>
 </g>
 <g>
  <title>Layer 1</title>
  <g id="layer1">
   <path fill="#ffffff" stroke-width="0" stroke-miterlimit="4" d="m263.771084,3.486716c-8.07696,0.00082 -14.62596,7.27591 -14.625,16.24999c0.00001,0.13773 0.0282,0.26934 0.0312,0.40625c-0.0119,1.21936 -0.0708,2.68836 -0.0312,3.75c0.19262,5.176 1.3209,9.13749 2,13.90625c1.23028,10.20666 2.26117,18.66736 1.625,26.53125c-0.61869,2.9654 -2.80288,5.67741 -4.75,7.5625l-0.34375,6.1875c-8.77682,0.72717 -17.61235,2.05874 -26.4375,4.0625c-37.97461,8.62218 -70.67008,28.18307 -95.5625,54.59375c-1.61522,-1.10193 -4.44103,-3.12914 -5.2813,-3.75c-2.61117,0.35262 -5.25021,1.15829 -8.6875,-0.84375c-6.54491,-4.40563 -12.50587,-10.48693 -19.71875,-17.8125c-3.30498,-3.50419 -5.69832,-6.84101 -9.625,-10.21875c-0.89172,-0.76707 -2.25258,-1.80455 -3.25,-2.59375c-3.06988,-2.44757 -6.6907,-3.72402 -10.1875,-3.84375c-4.49589,-0.15394 -8.82394,1.60385 -11.65625,5.15625c-5.03521,6.31538 -3.42312,15.96805 3.59375,21.5625c0.0712,0.0567 0.14702,0.10078 0.21875,0.15625c0.96422,0.78162 2.14496,1.78313 3.03125,2.4375c4.16687,3.07655 7.9732,4.65145 12.125,7.09375c8.747,5.40181 15.99837,9.88086 21.75,15.28125c2.24602,2.39417 2.63858,6.61292 2.9375,8.4375l4.6875,4.1875c-25.09342,37.76368 -36.70686,84.40946 -29.8437,131.9375l-6.125,1.78125c-1.6143,2.08461 -3.89541,5.36474 -6.2813,6.34375c-7.52513,2.37021 -15.99424,3.24059 -26.21875,4.3125c-4.80031,0.39915 -8.94218,0.16095 -14.03125,1.125c-1.12008,0.21218 -2.68072,0.61877 -3.90625,0.90625c-0.0426,0.009 -0.0824,0.0216 -0.125,0.0312c-0.0668,0.0155 -0.15456,0.0479 -0.21875,0.0625c-8.62014,2.08279 -14.15774,10.006 -12.375,17.8125c1.78316,7.80833 10.20314,12.55677 18.875,10.6875c0.0626,-0.0143 0.1535,-0.0167 0.21875,-0.0312c0.0979,-0.0224 0.18409,-0.0699 0.28125,-0.0937c1.20885,-0.26536 2.72377,-0.5606 3.78125,-0.84375c5.00334,-1.33963 8.62694,-3.30796 13.125,-5.03125c9.67694,-3.47077 17.69173,-6.37022 25.5,-7.5c3.26118,-0.25542 6.69711,2.01216 8.40625,2.96875l6.375,-1.09375c14.67018,45.48282 45.41416,82.24502 84.34375,105.3125l-2.65625,6.375c0.95742,2.47542 2.01341,5.8247 1.30022,8.26932c-2.83868,7.3612 -7.70097,15.13097 -13.23772,23.79318c-2.68085,4.00192 -5.42453,7.10761 -7.84375,11.6875c-0.5789,1.09589 -1.31618,2.77932 -1.875,3.9375c-3.75884,8.04236 -1.00164,17.3052 6.21875,20.78125c7.26575,3.49788 16.28447,-0.19134 20.1875,-8.25c0.006,-0.0114 0.0257,-0.0198 0.0312,-0.0312c0.004,-0.009 -0.004,-0.0225 0,-0.0312c0.55593,-1.14255 1.34353,-2.64437 1.8125,-3.71875c2.07213,-4.74702 2.76161,-8.81506 4.21875,-13.40625c3.86962,-9.72014 5.99567,-19.91903 11.32258,-26.27411c1.45868,-1.74023 3.83681,-2.4095 6.30242,-3.06964l3.3125,-6c33.93824,13.0268 71.92666,16.52246 109.875,7.90625c8.65697,-1.96557 17.01444,-4.50945 25.09375,-7.5625c0.93098,1.65133 2.66113,4.8257 3.125,5.625c2.50559,0.81518 5.24044,1.23614 7.46875,4.53125c3.98539,6.80898 6.7109,14.86416 10.03125,24.59375c1.45738,4.59111 2.17762,8.65933 4.25,13.40625c0.47234,1.08195 1.256,2.60486 1.8125,3.75c3.89482,8.08484 12.94212,11.78667 20.21875,8.28125c7.2195,-3.4779 9.97974,-12.7399 6.21875,-20.78125c-0.55889,-1.15814 -1.3273,-2.84164 -1.90625,-3.9375c-2.41946,-4.57976 -5.1627,-7.65448 -7.84375,-11.65625c-5.53721,-8.66192 -10.12968,-15.8577 -12.96875,-23.21875c-1.18711,-3.79657 0.20028,-6.15774 1.125,-8.625c-0.55378,-0.63477 -1.73881,-4.22009 -2.4375,-5.90625c40.4574,-23.88816 70.29856,-62.02129 84.3125,-106.0625c1.8924,0.29742 5.18154,0.87936 6.25,1.09375c2.19954,-1.4507 4.22194,-3.34352 8.1875,-3.03125c7.80832,1.12937 15.82288,4.02973 25.5,7.5c4.49815,1.72306 8.1216,3.72313 13.125,5.0625c1.05749,0.28309 2.57238,0.5472 3.78125,0.8125c0.0972,0.0238 0.1833,0.0714 0.28125,0.0937c0.0653,0.0146 0.15615,0.0169 0.21875,0.0312c8.67236,1.86695 17.09384,-2.87871 18.875,-10.6875c1.78074,-7.80696 -3.7543,-15.73201 -12.375,-17.8125c-1.25393,-0.28513 -3.03225,-0.76938 -4.25,-1c-5.08912,-0.96378 -9.23092,-0.7261 -14.03125,-1.125c-10.22456,-1.07138 -18.6935,-1.94269 -26.21875,-4.3125c-3.06826,-1.19028 -5.25103,-4.84124 -6.31255,-6.34375l-5.90625,-1.71875c3.06226,-22.15442 2.23655,-45.21134 -3.0625,-68.28125c-5.34839,-23.28471 -14.80037,-44.58084 -27.40625,-63.34375c1.51505,-1.37729 4.37619,-3.91091 5.1875,-4.65625c0.23716,-2.62417 0.0334,-5.37553 2.75,-8.28125c5.75134,-5.40069 13.00329,-9.87898 21.75,-15.28125c4.15167,-2.44252 7.98954,-4.01698 12.15625,-7.09375c0.94225,-0.69576 2.2289,-1.79759 3.21875,-2.59375c7.01538,-5.59633 8.63058,-15.24842 3.59375,-21.5625c-5.03683,-6.31408 -14.79712,-6.90883 -21.8125,-1.3125c-0.99856,0.79085 -2.35353,1.82252 -3.25,2.59375c-3.9265,3.37796 -6.35145,6.71439 -9.65625,10.21875c-7.21249,7.32595 -13.17407,13.43777 -19.71875,17.84375c-2.83601,1.65106 -6.98996,1.07978 -8.87505,0.96875l-5.5625,3.96875c-31.7188,-33.26057 -74.90466,-54.52546 -121.40605,-58.6563c-0.13006,-1.94872 -0.30045,-5.47117 -0.34375,-6.53125c-1.90371,-1.82165 -4.20342,-3.37686 -4.78125,-7.3125c-0.63617,-7.86389 0.42597,-16.32459 1.65625,-26.53125c0.6791,-4.76876 1.80738,-8.73025 2,-13.90625c0.0438,-1.17663 -0.0265,-2.88401 -0.0312,-4.15625c-0.00096,-8.97408 -6.54804,-16.25081 -14.625,-16.24999l-0.00005,0zm-18.3125,113.43749l-4.34375,76.71875l-0.3125,0.15625c-0.29134,6.86335 -5.93996,12.34375 -12.875,12.34375c-2.84081,0 -5.46294,-0.91229 -7.59375,-2.46875l-0.125,0.0625l-62.90625,-44.59375c19.33365,-19.01115 44.06291,-33.06039 72.5625,-39.53125c5.20599,-1.18203 10.40966,-2.0591 15.59375,-2.6875zm36.65625,0c33.27347,4.09232 64.04501,19.15882 87.625,42.25l-62.5,44.3125l-0.21875,-0.0937c-5.54745,4.05169 -13.36343,3.04639 -17.6875,-2.375c-1.77132,-2.22096 -2.70072,-4.83239 -2.8125,-7.46875l-0.0625,-0.0312l-4.34375,-76.59385zm-147.625,70.875l57.4375,51.375l-0.0625,0.3125c5.18437,4.50697 5.94888,12.32794 1.625,17.75c-1.7712,2.22105 -4.14208,3.71074 -6.6875,4.40625l-0.0625,0.25l-73.625,21.25c-3.74728,-34.26517 4.32855,-67.57364 21.375,-95.34375zm258.15625,0.0312c8.5341,13.83256 14.99655,29.28214 18.84375,46.03125c3.80106,16.54828 4.75499,33.06697 3.1875,49.03125l-74,-21.3125l-0.0625,-0.3125c-6.6265,-1.81104 -10.69893,-8.55162 -9.15625,-15.3125c0.63203,-2.76962 2.10222,-5.11264 4.09375,-6.84375l-0.0312,-0.15625l57.125,-51.125l-0.00005,0zm-140.65625,55.3125l23.53125,0l14.625,18.28125l-5.25,22.8125l-21.125,10.15625l-21.1875,-10.1875l-5.25,-22.8125l14.65625,-18.25zm75.4375,62.5625c0.99997,-0.0505 1.99558,0.0396 2.96875,0.21875l0.125,-0.15625l76.15625,12.875c-11.1455,31.3131 -32.47281,58.44018 -60.96875,76.59375l-29.5625,-71.40625l0.0937,-0.125c-2.71561,-6.30999 0.002,-13.70956 6.25,-16.71875c1.59965,-0.77041 3.27089,-1.19701 4.9375,-1.28125l0.00005,0zm-127.90625,0.3125c5.81174,0.0815 11.02462,4.11525 12.375,10.03125c0.63219,2.76958 0.3245,5.51375 -0.71875,7.9375l0.21875,0.28125l-29.25,70.6875c-27.34716,-17.5486 -49.12927,-43.82403 -60.78125,-76.06245l75.5,-12.8125l0.125,0.15625c0.84451,-0.15541 1.701,-0.2304 2.53125,-0.21875l0,-0.00005zm63.78125,30.9688c2.02445,-0.0744 4.07865,0.34098 6.03125,1.28125c2.55951,1.23253 4.53673,3.17319 5.78125,5.5l0.28125,0l37.21875,67.25c-4.83029,1.61923 -9.79609,3.00308 -14.875,4.15625c-28.46453,6.4629 -56.83862,4.50467 -82.53125,-4.25l37.125,-67.125l0.0625,0c2.22767,-4.16441 6.45247,-6.64887 10.90625,-6.8125z" id="path3059"/>
  </g>
 </g>
</svg>