<?xml version="1.0" encoding="utf-8"?>
<!-- Generator: Adobe Illustrator 26.0.2, SVG Export Plug-In . SVG Version: 6.00 Build 0)  -->
<svg version="1.1" id="Ebene_1" xmlns="http://www.w3.org/2000/svg" xmlns:xlink="http://www.w3.org/1999/xlink" x="0px" y="0px"
	 viewBox="0 0 1917.9 781.8" style="enable-background:new 0 0 1917.9 781.8;" xml:space="preserve">
<style type="text/css">
	.st0{fill:#FFFFFF;}
</style>
<path class="st0" d="M1743.1,138.3L1890.8,0h-235.6v286.3h43V150.1l138.7,136.2h58.9L1743.1,138.3z M1698.1,42.9h94.1l-94.1,90.4
	V42.9z"/>
<g>
	<defs>
		<rect id="SVGID_1_" x="-6.4" y="0" width="1902.1" height="781.8"/>
	</defs>
	<clipPath id="SVGID_00000106116965778409552490000011615941348305333637_">
		<use xlink:href="#SVGID_1_"  style="overflow:visible;"/>
	</clipPath>
</g>
<polygon class="st0" points="1358.8,777.7 1358.8,739.7 1194,739.7 1194,491.4 1151,491.4 1151,777.7 "/>
<polygon class="st0" points="1863,777.7 1863,739.7 1698.1,739.7 1698.1,491.4 1655.2,491.4 1655.2,777.7 "/>
<polygon class="st0" points="756.4,489.2 756.4,609.6 612.6,609.6 612.6,489.2 571.6,489.2 571.6,777.7 612.6,777.7 612.6,647.3 
	756.4,647.3 756.4,777.7 797.4,777.7 797.4,489.2 "/>
<polygon class="st0" points="193.6,0 54.9,133.4 54.9,0 12,0 12,286.3 54.9,286.3 54.9,150.1 193.6,286.3 252.5,286.3 99.9,138.3 
	247.6,0 "/>
<polygon class="st0" points="580.6,0 580.6,286.3 788.4,286.3 788.4,248.3 623.5,248.3 623.5,0 "/>
<polygon class="st0" points="1151,0 1151,286.3 1358.8,286.3 1358.8,248.3 1194,248.3 1194,0 "/>
<path class="st0" d="M211.8,661.7c-5.1-10.1-12-18.5-20.3-24.9c-8.3-6.4-17.5-11.7-27.5-15.8c-9.8-4.1-19.9-7.9-30-11.4
	c-9.9-3.4-19.1-7.2-27.3-11.3c-8.1-4-14.7-9-19.7-14.8c-4.9-5.7-7.4-13.3-7.4-22.6c0-11.7,4.4-20.9,13.2-27.4c8.8-6.6,21-9.9,36-9.9
	c12.4,0,23.5,2.5,33.1,7.3c9.6,4.9,18.7,12.3,27.1,22l0.8,0.9l27.9-27.9l-0.6-0.8c-9.4-11.9-21.7-21.6-36.7-29
	c-14.9-7.3-32-11-50.8-11c-17.1,0-32.7,3.2-46.4,9.4c-13.7,6.2-24.7,15.2-32.6,26.8c-7.9,11.5-11.9,25.7-11.9,42.1
	c0,14.9,2.5,27.4,7.5,37c5,9.6,11.9,17.6,20.3,23.7c8.4,6.1,17.7,11.2,27.7,15.2c9.8,4,19.8,7.6,29.8,11c9.8,3.3,18.9,7.1,27.1,11.3
	c8.1,4.2,14.7,9.5,19.6,16c4.9,6.4,7.4,14.9,7.4,25.3c0,12.5-5,22.4-15,29.6c-10.1,7.3-23.7,10.9-40.4,10.9
	c-17.1,0-31.6-3.2-43.2-9.6c-11.6-6.3-22-15.9-31-28.3l-0.8-1.1l-28,28l0.6,0.8c12.4,15.7,26.8,27.9,42.8,36.2
	c16,8.3,35.5,12.5,57.8,12.5c30.1,0,54.2-7.3,71.8-21.7c17.6-14.4,26.6-34.7,26.6-60.2C219.6,684.7,217,671.8,211.8,661.7z"/>
</svg>
